<?xml version="1.0" standalone="no"?>
<!DOCTYPE svg PUBLIC "-//W3C//DTD SVG 20010904//EN"
 "http://www.w3.org/TR/2001/REC-SVG-20010904/DTD/svg10.dtd">
<svg version="1.0" xmlns="http://www.w3.org/2000/svg"
 width="221.000000pt" height="228.000000pt" viewBox="0 0 221.000000 228.000000"
 preserveAspectRatio="xMidYMid meet">

<g transform="translate(0.000000,228.000000) scale(0.100000,-0.100000)"
fill="#000000" stroke="none">
<path d="M0 1180 l0 -1100 38 -1 c20 -1 517 -3 1104 -4 l1068 -2 0 1103 0
1104 -1105 0 -1105 0 0 -1100z m1643 663 c3 -5 -13 -9 -34 -9 -21 -1 -53 -11
-71 -21 -26 -15 -34 -27 -38 -59 -5 -35 -6 -36 -12 -14 -12 40 2 69 41 90 36
19 106 27 114 13z m-263 -37 c0 -16 -51 -56 -72 -56 -22 0 -76 -37 -89 -61
-14 -27 -14 -91 1 -118 6 -12 8 -21 6 -21 -13 0 -36 63 -36 99 0 51 36 91 103
116 27 9 53 26 60 36 14 23 27 25 27 5z m321 -42 c37 -25 71 -55 74 -65 4 -11
11 -17 16 -14 8 6 29 -34 29 -56 0 -5 -12 -14 -27 -20 -16 -6 -22 -13 -16 -16
7 -3 26 2 43 10 28 15 29 14 20 -3 -12 -22 -62 -60 -82 -61 -7 0 -4 -4 6 -8
17 -7 17 -9 -9 -29 -30 -24 -95 -30 -95 -10 0 9 -3 9 -12 0 -16 -16 -38 -15
-38 2 0 7 14 16 32 20 31 6 88 50 88 68 0 5 -12 -3 -27 -17 -30 -27 -33 -28
-75 -25 -15 1 -35 -7 -47 -19 -25 -25 -27 -33 -6 -25 8 4 15 1 15 -6 0 -19
-20 -51 -29 -45 -5 2 -16 -7 -26 -21 -16 -25 -16 -25 4 -14 26 14 27 -1 2 -24
-11 -10 -18 -23 -15 -30 7 -17 -34 -66 -54 -66 -15 1 -14 3 2 15 17 13 17 15
3 15 -10 0 -14 5 -11 15 4 8 2 15 -3 15 -15 0 -45 60 -39 77 4 11 16 14 40 11
19 -2 32 0 30 4 -3 4 -15 8 -27 8 -19 0 -18 3 11 33 18 18 32 38 32 44 0 22
44 43 90 43 27 0 40 4 32 8 -9 7 -8 13 8 27 15 14 29 16 67 11 27 -3 55 -1 63
4 8 5 10 10 5 10 -14 0 -95 71 -95 82 0 5 6 6 13 3 6 -3 2 2 -10 11 -13 9 -23
22 -23 29 0 7 -6 17 -13 24 -16 13 -37 -4 -37 -31 0 -21 -16 -24 -23 -5 -3 6
-6 3 -7 -8 l-1 -20 -9 20 c-6 14 -9 15 -9 5 -1 -9 -10 -16 -21 -17 -15 -1 -20
4 -20 22 0 16 11 29 38 43 20 12 45 21 55 21 11 1 50 -20 88 -45z m-765 24 c4
-6 3 -8 -4 -4 -6 3 -48 2 -94 -3 -73 -8 -85 -12 -105 -38 -19 -23 -23 -41 -24
-103 -1 -53 -3 -68 -9 -50 -24 74 1 173 48 196 31 15 179 17 188 2z m-69 -53
c5 -4 3 -6 -2 -2 -6 3 -11 -2 -11 -12 0 -10 6 -18 13 -18 7 0 9 5 6 10 -3 5 0
8 8 5 8 -3 16 -15 17 -28 3 -17 0 -21 -11 -17 -8 3 -20 0 -26 -6 -8 -8 -11 -8
-11 1 0 6 -6 9 -14 6 -8 -3 -17 -1 -21 5 -3 6 -17 8 -31 5 -15 -4 -24 -2 -24
6 0 6 4 9 9 5 5 -3 12 -1 15 4 5 7 -11 8 -31 2 -2 -1 -6 -1 -9 0 -4 0 -11 -5
-15 -13 -13 -20 -12 8 1 32 18 34 58 48 96 35 19 -6 37 -15 41 -20z m72 26 c8
-5 10 -14 6 -21 -5 -8 -4 -11 2 -7 7 4 10 -23 9 -78 -1 -85 -15 -98 -17 -15
l-1 45 -11 -35 -11 -35 -6 55 c-3 30 -11 65 -18 78 -12 20 -11 22 10 22 13 0
29 -4 37 -9z m454 -21 c4 -15 -2 -24 -21 -35 -15 -8 -23 -14 -19 -15 5 0 16 4
26 9 14 8 26 1 60 -35 23 -25 40 -51 38 -57 -2 -7 0 -25 4 -40 10 -35 -7 -44
-52 -28 -27 9 -30 9 -19 -4 9 -11 10 -18 1 -28 -6 -8 -8 -17 -5 -20 3 -3 3
-11 -2 -18 -5 -9 -11 -7 -21 7 -13 17 -13 16 -11 -16 3 -31 0 -35 -27 -41 -29
-6 -29 -7 -4 -8 44 -2 71 -31 73 -78 0 -32 3 -39 13 -31 10 8 13 5 13 -10 0
-11 -6 -24 -13 -30 -17 -14 -97 -32 -97 -22 0 5 -9 6 -20 3 -26 -7 -60 23 -60
53 0 12 5 35 10 51 l11 28 -26 -32 c-14 -18 -39 -42 -56 -54 -25 -18 -32 -19
-47 -8 -12 10 -12 7 3 -9 11 -14 26 -21 37 -19 28 8 22 -25 -10 -56 l-28 -27
-24 74 c-22 71 -22 76 -6 100 23 36 62 59 90 54 15 -3 23 -1 20 6 -2 6 12 21
32 34 19 12 38 30 41 40 3 9 11 24 18 32 17 21 25 59 14 66 -12 7 -11 34 1 34
6 0 10 -7 10 -16 0 -34 25 -5 26 30 1 44 -19 70 -44 57 -9 -5 -21 -10 -27 -11
-28 -6 -53 -20 -58 -32 -4 -9 -6 -8 -6 3 -1 23 37 69 57 69 13 0 69 28 98 49
1 1 4 -8 7 -19z m267 -64 c0 -12 -5 -7 -19 24 -11 24 -11 24 3 6 9 -11 16 -24
16 -30z m-828 -40 c5 -7 12 -4 21 8 8 11 19 16 25 12 18 -11 14 -36 -5 -36
-15 0 -16 -2 -3 -10 10 -6 11 -10 3 -10 -19 0 -16 -70 3 -91 15 -17 15 -22 -2
-70 -17 -48 -53 -89 -77 -89 -6 0 -2 10 9 21 19 22 19 22 -2 11 -12 -6 -24
-18 -28 -27 -5 -13 -10 -12 -41 7 -19 13 -35 26 -35 30 0 4 14 17 30 30 17 12
30 31 30 44 0 16 8 23 29 27 17 4 35 15 40 26 10 18 9 18 -19 8 -24 -9 -32 -8
-50 8 -23 21 -46 86 -37 108 4 11 17 13 54 9 26 -3 51 -10 55 -16z m843 14 c3
-5 -2 -10 -13 -10 -11 0 -30 -11 -43 -24 -13 -13 -37 -25 -54 -28 -16 -3 -38
-9 -47 -13 -11 -4 -18 -3 -18 4 0 5 19 16 43 23 23 6 46 18 50 26 16 25 71 40
82 22z m-946 -146 c-6 -8 -29 -14 -52 -14 -33 0 -46 -6 -73 -36 -19 -19 -34
-42 -34 -50 0 -9 -13 -34 -29 -57 -67 -98 -70 -118 -47 -252 8 -44 13 -81 11
-83 -6 -6 -14 29 -29 126 -17 106 -12 130 37 205 18 29 39 66 46 84 19 46 55
76 93 76 18 0 42 6 52 13 24 16 41 8 25 -12z m276 -35 c6 -6 -17 2 -50 16 -33
15 -64 31 -70 36 -5 6 17 -2 50 -16 33 -15 65 -31 70 -36z m275 11 c0 -6 -96
-57 -132 -70 -16 -5 -36 -23 -47 -41 -18 -29 -37 -27 -26 4 8 18 53 52 85 62
35 11 100 56 100 69 0 10 20 -13 20 -24z m180 16 c0 -3 -4 -8 -10 -11 -5 -3
-10 -1 -10 4 0 6 5 11 10 11 6 0 10 -2 10 -4z m-509 -27 c40 -14 86 -54 95
-83 4 -12 17 -44 29 -72 13 -28 30 -73 38 -101 15 -48 14 -51 -7 -74 -12 -13
-42 -46 -66 -74 l-45 -50 50 39 50 40 -35 -37 c-19 -21 -60 -54 -92 -75 -31
-20 -57 -43 -58 -49 0 -7 -18 -16 -41 -19 -28 -5 -39 -11 -35 -20 8 -21 -11
-17 -35 7 -20 20 -20 21 -2 41 18 21 18 21 -4 9 -39 -20 -61 -12 -23 9 27 15
46 18 82 14 45 -6 48 -4 91 39 49 51 107 154 99 177 -3 8 -18 30 -33 48 -16
18 -29 37 -29 42 0 4 -3 16 -7 26 -5 14 -2 16 17 11 19 -5 18 -1 -11 23 l-34
29 -13 -31 -13 -31 -17 24 c-21 29 -23 106 -3 118 7 5 10 14 7 20 -9 14 2 14
45 0z m-262 -36 c-13 -21 -29 -44 -36 -51 -7 -7 -13 -18 -13 -23 0 -5 -16 -27
-36 -49 -24 -26 -30 -38 -18 -33 16 6 15 2 -6 -24 -14 -17 -29 -28 -34 -25 -4
2 -6 -4 -2 -14 10 -36 25 -147 21 -155 -3 -4 6 -9 21 -11 28 -3 68 -57 48 -65
-7 -2 -10 -12 -7 -23 6 -24 -21 -21 -43 6 -8 10 -13 12 -9 4 3 -8 -7 1 -24 20
-17 19 -31 46 -32 60 -1 30 -4 50 -18 117 -12 60 -10 69 36 141 19 30 41 71
50 93 19 48 47 69 91 69 l34 0 -23 -37z m935 -65 c-4 -24 -12 -54 -17 -68
l-11 -25 -4 30 c-4 32 16 105 30 105 4 0 5 -19 2 -42z m-893 -18 c23 -19 23
-19 4 -20 -21 0 -45 17 -45 32 0 14 17 9 41 -12z m869 -195 c11 -49 24 -106
29 -126 5 -21 5 -43 0 -50 -6 -10 -9 -7 -9 11 -1 25 -1 25 -10 3 -6 -15 -18
-23 -33 -23 -31 0 -129 60 -143 88 -15 30 -29 42 -20 17 5 -11 9 -26 10 -33 1
-8 9 -18 17 -23 11 -7 11 -9 -4 -9 -10 0 -33 17 -52 37 -33 36 -51 73 -35 73
4 0 -1 16 -11 36 -20 40 -18 54 10 54 10 0 38 7 61 15 39 14 45 14 62 -2 23
-21 13 -31 -43 -42 l-44 -9 38 -1 c21 -1 47 4 58 9 19 11 20 10 19 -27 0 -5
-15 -14 -33 -21 l-32 -12 43 5 c37 5 42 3 42 -15 0 -30 -57 -27 -106 6 -21 15
-32 19 -24 10 20 -25 65 -46 112 -54 48 -8 62 -29 23 -34 -23 -3 -22 -5 20
-24 l45 -21 0 76 c0 48 -8 100 -20 139 -11 35 -20 80 -19 100 0 37 0 37 15
-13 8 -27 23 -90 34 -140z m-70 90 c0 -39 -14 -46 -30 -14 -14 25 -6 49 15 49
11 0 15 -10 15 -35z m-240 -61 c0 -14 5 -35 11 -47 7 -15 1 -12 -20 10 -30 33
-33 63 -5 63 8 0 14 -10 14 -26z m272 -21 c6 -12 8 -30 4 -40 -7 -17 -8 -17
-17 0 -6 10 -9 23 -6 30 2 6 -3 18 -10 26 -12 11 -12 15 -1 22 8 5 14 4 16 -4
2 -7 8 -22 14 -34z m-705 18 c11 -5 23 -8 26 -4 4 3 10 -2 13 -12 5 -11 -2
-24 -21 -41 -16 -13 -32 -24 -37 -24 -4 0 -8 -6 -8 -12 0 -23 -48 -114 -49
-93 0 11 6 31 14 45 17 30 18 40 5 40 -5 0 -10 -8 -10 -19 0 -10 -7 -24 -15
-31 -9 -7 -14 -19 -11 -27 5 -12 -30 -53 -45 -53 -28 0 -37 13 -27 36 6 13 14
24 17 24 3 0 7 12 8 26 0 15 5 29 10 33 4 3 9 26 10 51 l2 45 -11 -35 c-13
-46 -14 -46 -38 -25 -27 24 -26 7 2 -22 16 -17 19 -26 10 -35 -8 -8 -15 -8
-27 2 -14 12 -14 10 -5 -14 19 -50 12 -64 -15 -31 -29 35 -31 52 -10 82 9 13
16 42 17 67 l1 45 87 -4 c48 -2 96 -8 107 -14z m154 -26 c4 3 -3 -16 -17 -42
-25 -48 -54 -86 -87 -112 -36 -28 -17 14 27 60 28 30 46 61 51 85 5 23 10 32
12 21 3 -9 9 -15 14 -12z m-391 -14 c-5 -11 -10 -29 -10 -40 0 -20 -17 -38
-26 -28 -6 6 33 87 42 87 2 0 0 -9 -6 -19z m959 -53 c0 -7 -4 -22 -8 -32 -7
-19 -8 -18 -14 4 -3 13 -4 27 -1 32 8 12 24 10 23 -4z m-699 -37 c0 -40 -9
-61 -27 -61 -12 0 -14 7 -9 30 3 19 2 29 -4 25 -14 -9 -12 9 2 23 21 21 38 13
38 -17z m289 -1 c-8 18 1 12 32 -20 70 -71 80 -77 108 -64 13 7 28 18 32 26 6
9 9 5 9 -14 0 -15 5 -30 10 -33 17 -11 -18 -64 -43 -65 -5 0 -5 5 -2 10 3 6
-1 10 -9 10 -9 0 -16 4 -16 9 0 5 -10 11 -22 14 -13 4 -32 13 -43 22 l-20 15
20 -6 c11 -3 -7 10 -40 30 -99 58 -93 51 -71 75 l20 22 23 -28 c23 -27 24 -27
12 -3z m196 -21 c-6 -9 -11 -7 -22 6 -7 11 -13 26 -13 34 0 12 5 11 21 -6 13
-13 18 -26 14 -34z m-45 -13 c0 -15 -7 -26 -19 -29 -29 -7 -34 4 -10 21 11 8
18 20 15 29 -3 8 -1 11 4 8 6 -3 10 -17 10 -29z m-672 -202 c39 -11 24 -24
-28 -24 -38 0 -50 -4 -50 -15 0 -10 11 -15 35 -15 24 0 35 -5 35 -15 0 -11
-11 -15 -40 -15 -33 0 -40 -3 -40 -19 0 -35 -12 -51 -37 -51 -25 0 -25 1 -19
58 10 77 14 90 34 95 26 7 85 7 110 1z m97 -61 c-9 -86 -12 -93 -42 -93 -24 0
-25 0 -18 68 8 74 17 92 47 92 19 0 20 -4 13 -67z m185 52 c0 -9 -9 -15 -24
-15 -19 0 -24 -6 -30 -37 -3 -21 -6 -50 -6 -65 0 -25 -4 -28 -31 -28 l-31 0 7
53 c4 28 8 56 9 62 0 5 -9 11 -21 13 -23 3 -29 13 -16 25 3 4 37 7 75 7 54 0
68 -3 68 -15z m106 -31 l33 -38 6 29 c12 52 14 55 37 51 25 -4 25 -8 13 -98
-5 -36 -11 -49 -28 -54 -17 -5 -28 1 -53 30 -33 38 -44 34 -44 -15 0 -15 -7
-19 -31 -19 -24 0 -29 4 -25 18 2 9 8 45 11 79 6 56 9 62 28 59 11 -1 35 -20
53 -42z m253 40 c48 -10 37 -24 -19 -24 -38 0 -50 -4 -50 -15 0 -10 11 -15 35
-15 24 0 35 -5 35 -15 0 -11 -11 -15 -40 -15 -36 0 -40 -2 -40 -25 0 -23 4
-25 45 -25 25 0 45 -4 45 -9 0 -15 -22 -18 -85 -12 l-60 6 1 35 c2 64 14 108
32 113 27 7 67 8 101 1z m209 -11 c2 -9 -11 -13 -47 -13 -65 0 -69 -22 -8 -42
36 -11 42 -17 39 -38 -5 -48 -8 -50 -82 -50 -78 0 -96 17 -23 22 61 4 65 21 8
42 -34 14 -45 23 -45 39 0 45 20 56 99 53 34 0 56 -6 59 -13z m180 0 c2 -9
-11 -13 -47 -13 -63 0 -69 -21 -11 -39 48 -14 53 -21 39 -60 -11 -31 -12 -31
-80 -31 -77 0 -95 17 -22 22 60 4 65 22 11 40 -31 11 -44 21 -46 37 -4 27 12
48 41 54 41 9 110 2 115 -10z m-713 -198 c0 -5 -13 -12 -30 -13 -33 -4 -45
-16 -45 -49 0 -19 6 -23 30 -23 17 0 30 -5 30 -11 0 -6 -21 -9 -52 -7 l-53 3
3 45 c2 27 10 50 20 58 19 15 97 12 97 -3z m57 -38 c-3 -38 -1 -47 12 -47 9 0
16 -5 16 -11 0 -6 -16 -9 -37 -7 l-38 3 3 45 c3 60 9 72 29 68 15 -3 17 -12
15 -51z m96 3 c-6 -61 17 -72 27 -12 10 57 13 62 35 62 20 0 21 -4 14 -47 -9
-64 -18 -73 -75 -73 -54 0 -56 3 -43 83 5 28 11 37 27 37 18 0 19 -5 15 -50z
m207 38 c3 -7 2 -33 -3 -58 l-7 -45 -58 -3 c-31 -2 -57 1 -57 6 0 35 15 72 29
72 14 1 14 2 -2 11 -9 6 -15 14 -12 20 9 14 105 11 110 -3z"/>
<path d="M811 1104 c0 -11 3 -14 6 -6 3 7 2 16 -1 19 -3 4 -6 -2 -5 -13z"/>
<path d="M1250 580 c0 -5 6 -10 14 -10 8 0 18 5 21 10 3 6 -3 10 -14 10 -12 0
-21 -4 -21 -10z"/>
<path d="M1250 535 c0 -8 7 -15 15 -15 8 0 15 7 15 15 0 8 -7 15 -15 15 -8 0
-15 -7 -15 -15z"/>
<path d="M700 36 c0 -2 7 -7 16 -10 8 -3 12 -2 9 4 -6 10 -25 14 -25 6z"/>
</g>
</svg>
